<svg class="diagram-root" style="background: #f5f6f6" xmlns="http://www.w3.org/2000/svg" xmlns:xlink="http://www.w3.org/1999/xlink"><style>.diagram-root { font-family: "Helvetica Neue", sans-serif; font-size: 12px; } .t { overflow: visible; } .t-bg { y: 40; fill: #fff;   } .th { fill: #005aa0;   } .tht { fill: #fff; font-size: 14px;  } .tf { fill: #323c46; overflow: visible; } .tf.pk { fill: #005aa0; font-weight: bold; } .tf.fk { font-weight: bold; } .ty { fill: #adb1b5; font-weight: normal; text-anchor: end; } .r { fill: transparent; stroke: #c3c3c3; stroke-width: 1; } .l { stroke: 1; } .i { fill: #c2c7ce; stroke: #c2c7ce; } .i.ix { fill: #afb3b6; stroke: #000; } .fa { fill: transparent; overflow: visible; } .fa .bg.hover { fill: #f7f7f7; } .c { cy: 12; r: 4; stroke: #d2d2dc; fill: #d2d2dc; } .hr { fill: transparent; stroke: #323c46; stroke-opacity: 0.035; stroke-width: 13; } .dc { stroke: #fa5a3c; fill: #fa5a3c; } .x { stroke: white; stroke-width: 1; } .hl .th { fill: #1b9bff; } .hl .tht {  } .fhl .bg { fill: #e7f4ff; } .fhls .bg {  } .r.hl { stroke: #1b9bff; } .dim { opacity: 0.25; }</style><g class="drawing-wrapper" transform="translate(159.21, 67.70714285714297) scale(1,1)"><g class="rs"><path d="M 646.3 38.86 m -1, 0 a 1,1 0 1,0 2,0 a 1,1 0 1,0 -2,0 M 646.3 38.86 m -0.5, 0 a 0.5,0.5 0 1,0 1,0 a 0.5,0.5 0 1,0 -1,0  M646.3 38.86 L646.3 38.86 658.3 38.86 M 646.3 44.86 m -1, 0 a 1,1 0 1,0 2,0 a 1,1 0 1,0 -2,0 M 646.3 44.86 m -0.5, 0 a 0.5,0.5 0 1,0 1,0 a 0.5,0.5 0 1,0 -1,0  M646.3 44.86 L646.3 44.86 653.3 38.86 646.3 32.86 M 646.3 32.86 m -1, 0 a 1,1 0 1,0 2,0 a 1,1 0 1,0 -2,0 M 646.3 32.86 m -0.5, 0 a 0.5,0.5 0 1,0 1,0 a 0.5,0.5 0 1,0 -1,0  M658.3 38.86 Q 716.34 38.86, 774.37 29.08 T 890.43 19.29 M 902.43 19.29 m -1, 0 a 1,1 0 1,0 2,0 a 1,1 0 1,0 -2,0 M 902.43 19.29 m -0.5, 0 a 0.5,0.5 0 1,0 1,0 a 0.5,0.5 0 1,0 -1,0  M902.43 19.29 L902.43 19.29 890.43 19.29 M896.43 25.29 L896.43 25.29 896.43 13.29" id="h1397587031" class="r"></path><path d="M 499.14 63.86 m -1, 0 a 1,1 0 1,0 2,0 a 1,1 0 1,0 -2,0 M 499.14 63.86 m -0.5, 0 a 0.5,0.5 0 1,0 1,0 a 0.5,0.5 0 1,0 -1,0  M499.14 63.86 L499.14 63.86 487.14 63.86 M 499.14 69.86 m -1, 0 a 1,1 0 1,0 2,0 a 1,1 0 1,0 -2,0 M 499.14 69.86 m -0.5, 0 a 0.5,0.5 0 1,0 1,0 a 0.5,0.5 0 1,0 -1,0  M499.14 69.86 L499.14 69.86 492.14 63.86 499.14 57.86 M 499.14 57.86 m -1, 0 a 1,1 0 1,0 2,0 a 1,1 0 1,0 -2,0 M 499.14 57.86 m -0.5, 0 a 0.5,0.5 0 1,0 1,0 a 0.5,0.5 0 1,0 -1,0  M487.14 63.86 Q 374.01 63.86, 260.87 93.78 T 34.6 123.69 M 22.6 123.69 m -1, 0 a 1,1 0 1,0 2,0 a 1,1 0 1,0 -2,0 M 22.6 123.69 m -0.5, 0 a 0.5,0.5 0 1,0 1,0 a 0.5,0.5 0 1,0 -1,0  M22.6 123.69 L22.6 123.69 34.6 123.69 M28.6 129.69 L28.6 129.69 28.6 117.69" id="h2286254435" class="r"></path><path d="M 637.44 220.57 m -1, 0 a 1,1 0 1,0 2,0 a 1,1 0 1,0 -2,0 M 637.44 220.57 m -0.5, 0 a 0.5,0.5 0 1,0 1,0 a 0.5,0.5 0 1,0 -1,0  M637.44 220.57 L637.44 220.57 649.44 220.57 M 637.44 226.57 m -1, 0 a 1,1 0 1,0 2,0 a 1,1 0 1,0 -2,0 M 637.44 226.57 m -0.5, 0 a 0.5,0.5 0 1,0 1,0 a 0.5,0.5 0 1,0 -1,0  M637.44 226.57 L637.44 226.57 644.44 220.57 637.44 214.57 M 637.44 214.57 m -1, 0 a 1,1 0 1,0 2,0 a 1,1 0 1,0 -2,0 M 637.44 214.57 m -0.5, 0 a 0.5,0.5 0 1,0 1,0 a 0.5,0.5 0 1,0 -1,0  M649.44 220.57 Q 709.69 220.57, 769.94 119.93 T 890.43 19.29 M 902.43 19.29 m -1, 0 a 1,1 0 1,0 2,0 a 1,1 0 1,0 -2,0 M 902.43 19.29 m -0.5, 0 a 0.5,0.5 0 1,0 1,0 a 0.5,0.5 0 1,0 -1,0  M902.43 19.29 L902.43 19.29 890.43 19.29 M896.43 25.29 L896.43 25.29 896.43 13.29" id="h1607168654" class="r"></path><path d="M 490.28 245.57 m -1, 0 a 1,1 0 1,0 2,0 a 1,1 0 1,0 -2,0 M 490.28 245.57 m -0.5, 0 a 0.5,0.5 0 1,0 1,0 a 0.5,0.5 0 1,0 -1,0  M490.28 245.57 L490.28 245.57 478.28 245.57 M 490.28 251.57 m -1, 0 a 1,1 0 1,0 2,0 a 1,1 0 1,0 -2,0 M 490.28 251.57 m -0.5, 0 a 0.5,0.5 0 1,0 1,0 a 0.5,0.5 0 1,0 -1,0  M490.28 251.57 L490.28 251.57 483.28 245.57 490.28 239.57 M 490.28 239.57 m -1, 0 a 1,1 0 1,0 2,0 a 1,1 0 1,0 -2,0 M 490.28 239.57 m -0.5, 0 a 0.5,0.5 0 1,0 1,0 a 0.5,0.5 0 1,0 -1,0  M478.28 245.57 Q 367.36 245.57, 256.44 184.63 T 34.6 123.69 M 22.6 123.69 m -1, 0 a 1,1 0 1,0 2,0 a 1,1 0 1,0 -2,0 M 22.6 123.69 m -0.5, 0 a 0.5,0.5 0 1,0 1,0 a 0.5,0.5 0 1,0 -1,0  M22.6 123.69 L22.6 123.69 34.6 123.69 M28.6 129.69 L28.6 129.69 28.6 117.69" id="h1139284389" class="r"></path><path d="M 504.86 442.57 m -1, 0 a 1,1 0 1,0 2,0 a 1,1 0 1,0 -2,0 M 504.86 442.57 m -0.5, 0 a 0.5,0.5 0 1,0 1,0 a 0.5,0.5 0 1,0 -1,0  M504.86 442.57 L504.86 442.57 492.86 442.57 M 504.86 448.57 m -1, 0 a 1,1 0 1,0 2,0 a 1,1 0 1,0 -2,0 M 504.86 448.57 m -0.5, 0 a 0.5,0.5 0 1,0 1,0 a 0.5,0.5 0 1,0 -1,0  M504.86 448.57 L504.86 448.57 497.86 442.57 504.86 436.57 M 504.86 436.57 m -1, 0 a 1,1 0 1,0 2,0 a 1,1 0 1,0 -2,0 M 504.86 436.57 m -0.5, 0 a 0.5,0.5 0 1,0 1,0 a 0.5,0.5 0 1,0 -1,0  M492.86 442.57 Q 378.3 442.57, 263.73 283.13 T 34.6 123.69 M 22.6 123.69 m -1, 0 a 1,1 0 1,0 2,0 a 1,1 0 1,0 -2,0 M 22.6 123.69 m -0.5, 0 a 0.5,0.5 0 1,0 1,0 a 0.5,0.5 0 1,0 -1,0  M22.6 123.69 L22.6 123.69 34.6 123.69 M28.6 129.69 L28.6 129.69 28.6 117.69" id="h3177548053" class="r"></path><path d="M 22.6 148.69 m -1, 0 a 1,1 0 1,0 2,0 a 1,1 0 1,0 -2,0 M 22.6 148.69 m -0.5, 0 a 0.5,0.5 0 1,0 1,0 a 0.5,0.5 0 1,0 -1,0  M22.6 148.69 L22.6 148.69 34.6 148.69 M 22.6 154.69 m -1, 0 a 1,1 0 1,0 2,0 a 1,1 0 1,0 -2,0 M 22.6 154.69 m -0.5, 0 a 0.5,0.5 0 1,0 1,0 a 0.5,0.5 0 1,0 -1,0  M22.6 154.69 L22.6 154.69 29.6 148.69 22.6 142.69 M 22.6 142.69 m -1, 0 a 1,1 0 1,0 2,0 a 1,1 0 1,0 -2,0 M 22.6 142.69 m -0.5, 0 a 0.5,0.5 0 1,0 1,0 a 0.5,0.5 0 1,0 -1,0  M34.6 148.69 Q 145.95 148.69, 257.3 388.35 T 479.99 628 M 491.99 628 m -1, 0 a 1,1 0 1,0 2,0 a 1,1 0 1,0 -2,0 M 491.99 628 m -0.5, 0 a 0.5,0.5 0 1,0 1,0 a 0.5,0.5 0 1,0 -1,0  M491.99 628 L491.99 628 479.99 628 M485.99 634 L485.99 634 485.99 622" id="h204939704" class="r"></path></g><g class="hrs"></g><g class="ts"><svg width="167.16" height="100" x="902.43" y="-37.71" id="h475896179" class="t"><rect height="40" width="167.16" class="th"></rect><text x="13" y="25" class="tht">departments</text><rect height="60" width="167.16" class="t-bg"></rect><text x="13" y="61" class="tf pk">dept_no<tspan x="154.16" class="ty">VARCHAR</tspan></text><path d="M7,14A2,2 0 0,1 5,12A2,2 0 0,1 7,10A2,2 0 0,1 9,12A2,2 0 0,1 7,14M12.65,10C11.83,7.67 9.61,6 7, 6A6, 6 0 0, 0 1, 12A6, 6 0 0, 0 7, 18C9.61, 18 11.83, 16.33 12.65, 14H17V18H21V14H23V10H12.65Z" class="i pk" transform="translate(76.37484375, 48) scale(0.65)"></path><text x="13" y="86" class="tf">dept_name<tspan x="154.16" class="ty">VARCHAR</tspan></text></svg><svg width="147.16" height="100" x="499.14" y="-18.14" id="h1676682957" class="t"><rect height="40" width="147.16" class="th"></rect><text x="13" y="25" class="tht">dept_manager</text><rect height="60" width="147.16" class="t-bg"></rect><text x="13" y="61" class="tf fk">dept_no<tspan x="134.16" class="ty">VARCHAR</tspan></text><text x="13" y="86" class="tf fk">emp_no<tspan x="134.16" class="ty">INT</tspan></text></svg><svg width="147.16" height="100" x="490.28" y="163.57" id="h1090417462" class="t"><rect height="40" width="147.16" class="th"></rect><text x="13" y="25" class="tht">dept_emp</text><rect height="60" width="147.16" class="t-bg"></rect><text x="13" y="61" class="tf fk">dept_no<tspan x="134.16" class="ty">VARCHAR</tspan></text><text x="13" y="86" class="tf fk">emp_no<tspan x="134.16" class="ty">INT</tspan></text></svg><svg width="108.7" height="100" x="504.86" y="385.57" id="h2472833127" class="t"><rect height="40" width="108.7" class="th"></rect><text x="13" y="25" class="tht">salaries</text><rect height="60" width="108.7" class="t-bg"></rect><text x="13" y="61" class="tf fk">emp_no<tspan x="95.7" class="ty">INT</tspan></text><text x="13" y="86" class="tf">salary<tspan x="95.7" class="ty">INT</tspan></text></svg><svg width="158.47" height="100" x="491.99" y="571" id="h311790747" class="t"><rect height="40" width="158.47" class="th"></rect><text x="13" y="25" class="tht">titles</text><rect height="60" width="158.47" class="t-bg"></rect><text x="13" y="61" class="tf pk">title_id<tspan x="145.47" class="ty">VARCHAR</tspan></text><path d="M7,14A2,2 0 0,1 5,12A2,2 0 0,1 7,10A2,2 0 0,1 9,12A2,2 0 0,1 7,14M12.65,10C11.83,7.67 9.61,6 7, 6A6, 6 0 0, 0 1, 12A6, 6 0 0, 0 7, 18C9.61, 18 11.83, 16.33 12.65, 14H17V18H21V14H23V10H12.65Z" class="i pk" transform="translate(67.68484375, 48) scale(0.65)"></path><text x="13" y="86" class="tf">title<tspan x="145.47" class="ty">VARCHAR</tspan></text></svg><svg width="159.81" height="225" x="-137.21" y="66.69" id="h1639608377" class="t"><rect height="40" width="159.81" class="th"></rect><text x="13" y="25" class="tht">employees</text><rect height="185" width="159.81" class="t-bg"></rect><text x="13" y="61" class="tf pk">emp_no<tspan x="146.81" class="ty">INT</tspan></text><path d="M7,14A2,2 0 0,1 5,12A2,2 0 0,1 7,10A2,2 0 0,1 9,12A2,2 0 0,1 7,14M12.65,10C11.83,7.67 9.61,6 7, 6A6, 6 0 0, 0 1, 12A6, 6 0 0, 0 7, 18C9.61, 18 11.83, 16.33 12.65, 14H17V18H21V14H23V10H12.65Z" class="i pk" transform="translate(107.479921875, 48) scale(0.65)"></path><text x="13" y="86" class="tf fk">emp_title<tspan x="146.81" class="ty">VARCHAR</tspan></text><text x="13" y="111" class="tf">birth_date<tspan x="146.81" class="ty">DATE</tspan></text><text x="13" y="136" class="tf">first_name<tspan x="146.81" class="ty">VARCHAR</tspan></text><text x="13" y="161" class="tf">last_name<tspan x="146.81" class="ty">VARCHAR</tspan></text><text x="13" y="186" class="tf">sex<tspan x="146.81" class="ty">VARCHAR</tspan></text><text x="13" y="211" class="tf">hire_date<tspan x="146.81" class="ty">DATE</tspan></text></svg></g></g><text class="qdbd-link" x="10" y="20">www.quickdatabasediagrams.com</text></svg>